<svg
    width="24"
    height="23"
    viewBox="0 0 24 23"
    fill="none"
    xmlns="http://www.w3.org/2000/svg"
>
    <path
        d="M2.84899 22.5688C3.39504 22.7924 3.99874 22.8532 4.58134 22.7431C5.16395 22.633 5.6984 22.3572 6.11499 21.9516L12 16.3425L17.885 21.9516C18.1594 22.2185 18.4863 22.4305 18.8467 22.5754C19.2072 22.7203 19.5941 22.7953 19.985 22.7959C20.3868 22.7948 20.7844 22.7176 21.155 22.5688C21.7055 22.3553 22.176 21.9877 22.5052 21.5139C22.8343 21.0402 23.0068 20.4824 23 19.9133V4.79173C22.9984 3.52137 22.4711 2.30347 21.5338 1.40519C20.5964 0.506906 19.3256 0.00158273 18 6.10352e-05L5.99999 6.10352e-05C4.6744 0.00158273 3.40355 0.506906 2.46621 1.40519C1.52887 2.30347 1.00158 3.52137 0.999991 4.79173V19.9133C0.993538 20.4828 1.16657 21.041 1.49645 21.5148C1.82634 21.9885 2.29773 22.3559 2.84899 22.5688Z"
        fill="white"
    />
</svg>
