<svg width="24" height="23" viewBox="0 0 24 23" fill="none" xmlns="http://www.w3.org/2000/svg">
<g clip-path="url(#clip0_28_210)">
<path d="M12 23.0001C11.445 23.0001 10.891 22.9263 10.352 22.7787L3.62597 20.9377C1.49097 20.3531 -3.05176e-05 18.4585 -3.05176e-05 16.3301V3.83339C-3.05176e-05 3.30439 0.44797 2.87505 0.99997 2.87505C1.55197 2.87505 1.99997 3.30439 1.99997 3.83339V16.3301C1.99997 17.6075 2.89497 18.7441 4.17597 19.0948L10.902 20.9358C11.621 21.1323 12.38 21.1323 13.1 20.9358L19.825 19.0948C21.106 18.7441 22.001 17.6075 22.001 16.3301V2.87505C22.001 2.34605 22.449 1.91672 23.001 1.91672C23.553 1.91672 24.001 2.34605 24.001 2.87505V16.3301C24.001 18.4576 22.51 20.3522 20.375 20.9377L13.649 22.7787C13.109 22.9263 12.555 23.0001 12.001 23.0001H12ZM18.023 0.148595C17.295 -0.109197 16.484 -0.0449882 15.763 0.231012L14.886 0.566429C13.747 1.00247 12.999 2.06047 12.999 3.23635V17.1283C12.671 17.2088 12.336 17.2501 11.999 17.2501C11.662 17.2501 11.327 17.2088 10.999 17.1283V3.23635C10.999 2.06047 10.252 1.00247 9.11197 0.566429L8.23397 0.230053C7.51297 -0.0459466 6.70197 -0.110155 5.97397 0.148595C4.75897 0.579845 3.99797 1.66564 3.99797 2.85301V15.0373C3.99797 16.3205 4.88597 17.4484 6.17297 17.8011L10.349 18.9453C10.887 19.092 11.442 19.1658 11.997 19.1658C12.552 19.1658 13.107 19.092 13.645 18.9453L17.821 17.8011C19.109 17.4484 19.996 16.3205 19.996 15.0373V2.85301C19.996 1.66564 19.234 0.578887 18.019 0.148595H18.023Z" fill="white"/>
</g>
<defs>
<clipPath id="clip0_28_210">
<rect width="24" height="23" fill="white"/>
</clipPath>
</defs>
</svg>
