<svg width="24" height="25" viewBox="0 0 24 25" fill="none" xmlns="http://www.w3.org/2000/svg">
<path d="M8.18954 23.1726V19.3983C8.18954 18.4349 8.9763 17.6538 9.94681 17.6538H13.4945C13.9606 17.6538 14.4075 17.8376 14.7371 18.1648C15.0666 18.4919 15.2518 18.9357 15.2518 19.3983V23.1726C15.2488 23.5731 15.4071 23.9583 15.6913 24.2426C15.9756 24.5268 16.3624 24.6867 16.7659 24.6867H19.1863C20.3167 24.6896 21.4018 24.2459 22.2022 23.4534C23.0026 22.6609 23.4524 21.5848 23.4524 20.4626V9.71034C23.4523 8.80385 23.0476 7.94399 22.3472 7.3624L14.1134 0.834249C12.6811 -0.310359 10.629 -0.273403 9.23948 0.922022L1.19362 7.3624C0.460087 7.92684 0.0216654 8.78925 0 9.71034V20.4516C0 22.7906 1.90999 24.6867 4.26608 24.6867H6.63121C7.46924 24.6867 8.15031 24.0155 8.15638 23.1836L8.18954 23.1726Z" fill="white"/>
</svg>
