<?xml version="1.0" encoding="UTF-8"?>
<svg version="1.1" xmlns="http://www.w3.org/2000/svg" width="512" height="512">
    <path
        d="M0 0 C1.03159241 -0.00012085 2.06318481 -0.0002417 3.1260376 -0.00036621 C19.11348808 0.02625942 34.33800553 0.94693008 50 4.375 C51.50609384 4.66881019 53.01258344 4.96060171 54.51953125 5.25 C90.93199981 12.63578554 124.16523088 30.9662331 151 56.375 C151.89332031 57.21546875 152.78664063 58.0559375 153.70703125 58.921875 C175.25563425 79.77730615 190.57274748 107.07140665 198.25 135.9375 C198.49637207 136.85853516 198.74274414 137.77957031 198.99658203 138.72851562 C202.57570521 152.78776658 203.37404057 166.51222196 203.3125 180.9375 C203.30976578 182.26535019 203.30976578 182.26535019 203.30697632 183.62002563 C203.26142743 196.75397997 202.78798687 209.49741267 200 222.375 C199.82307617 223.22964844 199.64615234 224.08429688 199.46386719 224.96484375 C193.42808183 253.69476505 182.80794283 281.78856144 165 305.375 C163.83597656 306.95474609 163.83597656 306.95474609 162.6484375 308.56640625 C153.12166139 321.2591859 141.93142125 333.10812097 129 342.375 C128.4647168 342.75962402 127.92943359 343.14424805 127.37792969 343.54052734 C95.24573953 366.39661935 55.30443992 377.62486488 15.9921875 372.13671875 C5.99983953 370.38744104 -3.96818944 366.9614663 -13 362.375 C-14.0828125 361.84132813 -14.0828125 361.84132813 -15.1875 361.296875 C-24.35315512 356.52309629 -32.98174003 349.8643336 -39 341.375 C-39 340.715 -39 340.055 -39 339.375 C-39.66 339.375 -40.32 339.375 -41 339.375 C-41.09887512 339.99816605 -41.19775024 340.62133209 -41.29962158 341.26338196 C-42.66891252 349.35700386 -44.7283628 357.20201312 -46.921875 365.10546875 C-47.30841468 366.50867597 -47.69474243 367.91194159 -48.08087158 369.31526184 C-48.88786345 372.24340365 -49.69854979 375.17049172 -50.51171875 378.09692383 C-51.33565541 381.06351757 -52.15397429 384.03156268 -52.96679688 387.0012207 C-61.46966246 418.06375763 -61.46966246 418.06375763 -67 431.375 C-67.45568359 432.52871094 -67.91136719 433.68242187 -68.38085938 434.87109375 C-72.88915061 446.20905694 -79.00942642 456.77088394 -85 467.375 C-85.4336084 468.14279785 -85.8672168 468.9105957 -86.31396484 469.70166016 C-91.19383969 478.28457869 -96.38664839 486.64875322 -101.75 494.9375 C-102.28101318 495.75879395 -102.81202637 496.58008789 -103.35913086 497.42626953 C-104.88388071 499.75829595 -106.43637503 502.06890216 -108 504.375 C-108.51111328 505.15601074 -109.02222656 505.93702148 -109.54882812 506.74169922 C-110.30583008 507.84215576 -110.30583008 507.84215576 -111.078125 508.96484375 C-111.74183105 509.95085571 -111.74183105 509.95085571 -112.41894531 510.95678711 C-114 512.375 -114 512.375 -116.55761719 512.77563477 C-117.36360352 512.64342529 -118.16958984 512.51121582 -119 512.375 C-121.18785926 509.09321111 -121.4816843 507.29521929 -122 503.43359375 C-122.1640332 502.22372803 -122.32806641 501.0138623 -122.49707031 499.76733398 C-122.66303711 498.46223877 -122.82900391 497.15714355 -123 495.8125 C-123.08648804 495.14195587 -123.17297607 494.47141174 -123.26208496 493.7805481 C-127.60755323 459.94761532 -130.14017342 425.35404856 -122.19140625 391.90625 C-121.89226318 390.63632706 -121.59312012 389.36640411 -121.28491211 388.05799866 C-116.47345816 367.72632164 -111.37808195 347.46159576 -106.33831787 327.18566895 C-104.94461997 321.57779795 -103.55229708 315.96958583 -102.16015625 310.36132812 C-101.88807846 309.26547205 -101.61600067 308.16961597 -101.3356781 307.04055214 C-99.99843143 301.65295361 -98.66311328 296.26488878 -97.33178711 290.87582397 C-97.07856186 289.85085627 -96.82533661 288.82588856 -96.56443787 287.76986122 C-96.06853638 285.7624899 -95.57273537 283.75509376 -95.07704163 281.74767113 C-93.79399121 276.55880857 -92.49755706 271.37374222 -91.17917633 266.19374371 C-90.64728228 264.09992208 -90.12057075 262.00487926 -89.59606934 259.90919495 C-88.99571095 257.51430188 -88.38603612 255.12171232 -87.76428223 252.73228455 C-85.41177707 243.2533276 -86.94634509 236.92441589 -90.09570312 227.77539062 C-97.61592405 204.94372889 -96.42642036 177.09339921 -86.46484375 155.171875 C-77.60991097 138.26485667 -65.17143809 126.44273544 -47 120.375 C-34.78082283 117.32020571 -21.74272276 119.67449165 -10.796875 125.55859375 C-1.33905164 131.70089523 3.10865931 140.80018053 5.78125 151.50390625 C9.74316354 172.74706107 2.60902245 194.39725684 -3.82974243 214.44332886 C-5.40720335 219.36152297 -6.94870145 224.29103105 -8.49609375 229.21875 C-8.80016647 230.18449448 -9.1042392 231.15023895 -9.41752625 232.14524841 C-11.94692038 240.18271328 -14.43560328 248.22844542 -16.8125 256.3125 C-17.1312207 257.35591553 -17.44994141 258.39933105 -17.77832031 259.47436523 C-21.45648269 272.17273361 -22.66990267 285.04823909 -16.6015625 297.16796875 C-8.91778796 310.37079962 1.29264204 316.80833908 15.89013672 320.90551758 C34.80561038 325.11454973 54.85589185 319.02501619 71 309.375 C74.85341522 306.90823041 78.45431672 304.26448373 82 301.375 C83.25876953 300.36179687 83.25876953 300.36179687 84.54296875 299.328125 C110.71043276 277.09592302 122.84969524 240.43274857 127 207.375 C127.0942627 206.6329834 127.18852539 205.8909668 127.28564453 205.12646484 C131.36857978 169.28574347 125.28271033 134.84336815 104 105.375 C101.14115349 101.89223585 98.14475179 98.60022772 95 95.375 C93.7625 94.075625 93.7625 94.075625 92.5 92.75 C91.2625 91.574375 91.2625 91.574375 90 90.375 C89.3915625 89.78332031 88.783125 89.19164063 88.15625 88.58203125 C61.25373265 63.38528946 22.45638124 55.18229992 -13.265625 56.05859375 C-52.15328692 57.59886315 -89.77074402 71.91756174 -117 100.375 C-140.11957536 126.13163962 -153.33680285 159.59817362 -152 194.375 C-150.03521371 218.52255328 -142.66642602 240.95719345 -127.7578125 260.28125 C-124.28911299 266.38616114 -126.33035699 272.6553771 -128.08203125 279.046875 C-128.40429939 280.25322601 -128.40429939 280.25322601 -128.733078 281.48394775 C-129.18689648 283.17260993 -129.64516698 284.86008135 -130.10766602 286.54638672 C-130.81320642 289.12758442 -131.49819818 291.71365609 -132.18164062 294.30078125 C-132.62637962 295.94564408 -133.07230222 297.59018745 -133.51953125 299.234375 C-133.82441216 300.3922049 -133.82441216 300.3922049 -134.13545227 301.57342529 C-135.91896048 307.97636123 -135.91896048 307.97636123 -139 310.375 C-149.42504589 311.07000306 -158.80711175 303.97039834 -166.50390625 297.53125 C-188.234767 278.46286344 -201.61185095 253.03889643 -209 225.375 C-209.21172852 224.60865234 -209.42345703 223.84230469 -209.64160156 223.05273438 C-216.20532569 198.35815264 -214.742465 170.07421175 -209 145.375 C-208.84515137 144.69824219 -208.69030273 144.02148438 -208.53076172 143.32421875 C-207.56531477 139.26142982 -206.34271668 135.32731554 -205 131.375 C-204.76974121 130.67665039 -204.53948242 129.97830078 -204.30224609 129.25878906 C-198.59743403 112.11133465 -190.68663194 95.99463031 -180 81.375 C-179.61295898 80.84132813 -179.22591797 80.30765625 -178.82714844 79.7578125 C-168.72109904 65.95442796 -156.64800131 53.6975024 -143 43.375 C-141.98164063 42.58996094 -140.96328125 41.80492187 -139.9140625 40.99609375 C-114.417148 21.77493495 -84.48444088 11.09492108 -53.5 4.6875 C-52.52804688 4.48471436 -51.55609375 4.28192871 -50.5546875 4.07299805 C-33.75599124 0.75564337 -17.0888551 -0.03089278 0 0 Z "
        fill="#FFFFFF"
        transform="translate(261,-0.375)"
    />
</svg>
