<?xml version="1.0" encoding="UTF-8"?>
<svg version="1.1" xmlns="http://www.w3.org/2000/svg" width="512" height="512">
    <path
        d="M0 0 C1.45108658 0.00273422 1.45108658 0.00273422 2.93148804 0.00552368 C17.26440977 0.05095174 31.21023917 0.55983928 45.3125 3.3125 C46.65803955 3.55395752 46.65803955 3.55395752 48.03076172 3.80029297 C97.35869051 12.72613581 142.37957013 36.6028188 178.3125 71.3125 C178.93334473 71.91143066 179.55418945 72.51036133 180.19384766 73.12744141 C197.64861166 90.05790711 212.43209718 109.07019314 224.3125 130.3125 C224.71033691 131.01391113 225.10817383 131.71532227 225.51806641 132.43798828 C240.24678993 158.59109821 249.95041801 187.61534582 254.3125 217.3125 C254.48982666 218.51712891 254.66715332 219.72175781 254.84985352 220.96289062 C256.448825 232.62017354 256.6709053 244.18436098 256.625 255.9375 C256.62226578 257.39233292 256.62226578 257.39233292 256.61947632 258.8765564 C256.57408309 273.22806055 256.0687347 287.19192918 253.3125 301.3125 C253.15152832 302.20952637 252.99055664 303.10655273 252.82470703 304.03076172 C244.01724 352.70449644 220.5800976 397.76147178 186.3125 433.3125 C185.72919922 433.91771484 185.14589844 434.52292969 184.54492188 435.14648438 C176.86192673 443.06982347 169.0874998 450.58971789 160.3125 457.3125 C159.1352685 458.24199987 157.9581953 459.17170027 156.78125 460.1015625 C130.13932968 480.87811929 99.58379185 494.82654221 67.3125 504.3125 C66.63219727 504.51858887 65.95189453 504.72467773 65.25097656 504.93701172 C60.65284537 506.313086 56.01979483 507.39229855 51.3125 508.3125 C50.38373047 508.49441895 49.45496094 508.67633789 48.49804688 508.86376953 C9.65619848 516.08405656 -32.80957601 514.73489159 -70.6875 503.3125 C-71.52506836 503.06129395 -72.36263672 502.81008789 -73.22558594 502.55126953 C-91.03770323 497.11034406 -108.40682943 490.3223839 -124.36328125 480.6484375 C-130.87158212 478.03288063 -138.17423338 480.81780413 -144.71459961 482.61328125 C-145.57913254 482.84590668 -146.44366547 483.0785321 -147.33439636 483.31820679 C-149.19886132 483.82057594 -151.06267345 484.32537308 -152.92588615 484.83236694 C-155.88063918 485.63609687 -158.83719955 486.43283614 -161.79432678 487.2277832 C-169.13673249 489.20298052 -176.47626939 491.1887416 -183.81524658 493.17663574 C-190.02481245 494.85846516 -196.23574476 496.53504651 -202.44873238 498.20419312 C-205.35095974 498.98615534 -208.25102468 499.77580279 -211.15110779 500.56567383 C-212.94429807 501.04809444 -214.73759212 501.53012953 -216.53100586 502.01171875 C-217.32764648 502.23097015 -218.12428711 502.45022156 -218.94506836 502.67611694 C-226.43128182 504.6696095 -233.61273265 506.55447035 -240.96484375 503.32421875 C-244.62140286 501.17671578 -246.21930789 498.29347395 -248 494.5625 C-249.46687992 487.62815855 -247.42926533 480.57044723 -245.60205078 473.84619141 C-245.28719223 472.65640434 -245.28719223 472.65640434 -244.9659729 471.44258118 C-244.27773782 468.84805985 -243.58037238 466.25609078 -242.8828125 463.6640625 C-242.39762557 461.84254549 -241.91300594 460.02087729 -241.42892456 458.19906616 C-240.15682013 453.41784143 -238.87689716 448.6387439 -237.59533691 443.86004639 C-236.29956724 439.02258034 -235.0115146 434.18306106 -233.72265625 429.34375 C-231.82959629 422.24064987 -229.93343572 415.13839029 -228.03173828 408.03759766 C-227.82471818 407.26270902 -227.61769808 406.48782038 -227.40440464 405.68945026 C-226.03434388 400.57079077 -224.62192011 395.46547089 -223.15672302 390.37309265 C-221.85602239 384.66106654 -224.47863557 380.42269634 -227.25 375.625 C-240.09306057 352.32517989 -248.00717414 326.4216434 -252.6875 300.3125 C-252.85121094 299.42997559 -253.01492187 298.54745117 -253.18359375 297.63818359 C-264.73230545 232.70054126 -248.03395955 163.59693545 -210.79296875 109.6328125 C-202.65646976 98.14507845 -193.43073283 87.45974345 -183.6875 77.3125 C-183.12305176 76.72082031 -182.55860352 76.12914063 -181.97705078 75.51953125 C-173.44279119 66.62059892 -164.62480339 58.60916041 -154.6875 51.3125 C-154.10613281 50.88098633 -153.52476562 50.44947266 -152.92578125 50.00488281 C-121.97463801 27.09898707 -87.03272035 11.76383883 -49.3125 4 C-48.24672729 3.77896606 -48.24672729 3.77896606 -47.15942383 3.5534668 C-31.51708949 0.56705983 -15.88073907 -0.06230954 0 0 Z M-61.6875 40.3125 C-62.50831055 40.53856934 -63.32912109 40.76463867 -64.17480469 40.99755859 C-85.58823204 47.07160026 -107.65856985 57.19232499 -125.6875 70.3125 C-126.31865723 70.76302734 -126.94981445 71.21355469 -127.60009766 71.67773438 C-135.91301723 77.62602839 -143.71010989 83.89914434 -151.140625 90.91796875 C-153.21015535 92.86370818 -155.3061913 94.69932958 -157.5 96.5 C-160.64575019 99.15827316 -163.29230953 102.13188823 -165.953125 105.26953125 C-167.04582985 106.55665881 -168.15810962 107.82765762 -169.296875 109.07421875 C-207.01431839 150.47360304 -226.8098496 208.68693931 -224.6875 264.3125 C-222.8032231 301.36319206 -212.3098208 336.09995795 -194.37109375 368.5078125 C-193.80745117 369.55727051 -193.80745117 369.55727051 -193.23242188 370.62792969 C-192.5215799 371.94994532 -191.79127549 373.26178176 -191.03710938 374.55957031 C-185.66241062 384.65992735 -191.31197378 397.12592764 -194.16015625 407.40625 C-194.60790319 409.04605426 -195.05486588 410.68607284 -195.50108337 412.32629395 C-196.66964721 416.61482063 -197.847303 420.90079312 -199.02740479 425.18615723 C-200.92186821 432.07176929 -202.80231541 438.9612218 -204.68279839 445.85066223 C-205.34034759 448.25453099 -206.00177755 450.65730562 -206.66383362 453.05993652 C-207.06510861 454.5236609 -207.46631193 455.98740493 -207.86743164 457.45117188 C-208.05287537 458.12022552 -208.23831909 458.78927917 -208.42938232 459.47860718 C-209.3747026 462.84667707 -209.3747026 462.84667707 -209.6875 466.3125 C-199.18641553 463.9980656 -188.8067761 461.30294126 -178.4375 458.45703125 C-177.16479248 458.10800751 -175.89208496 457.75898376 -174.58081055 457.39938354 C-169.26570723 455.93988914 -163.95193734 454.47562053 -158.64013672 453.00415039 C-155.9886426 452.26992021 -153.33618301 451.53937492 -150.68261719 450.81266785 C-148.209049 450.13500794 -145.73694553 449.45197036 -143.26660156 448.76264954 C-131.58821695 445.57406898 -123.82215396 444.21201179 -112.98925781 450.26074219 C-111.07338659 451.35655082 -109.16140537 452.45892154 -107.25 453.5625 C-57.36999079 482.29888146 4.09448697 488.12785128 59.22485352 473.35351562 C88.38909455 465.24755031 114.59969574 451.73546362 138.5625 433.3125 C139.30741699 432.74313721 140.05233398 432.17377441 140.81982422 431.5871582 C145.37442969 428.03574079 149.51043329 424.26504871 153.5222168 420.109375 C155.23171257 418.39358488 157.00087679 416.84454542 158.875 415.3125 C162.80176808 412.00481698 166.01894331 408.23815343 169.3125 404.3125 C170.06402344 403.44882812 170.81554687 402.58515625 171.58984375 401.6953125 C211.60409843 355.04362221 227.99533865 295.45589966 224.08544922 234.78955078 C222.88210057 221.05185093 220.0084822 207.58155742 216.3125 194.3125 C216.08643066 193.49168945 215.86036133 192.67087891 215.62744141 191.82519531 C209.55339974 170.41176796 199.43267501 148.34143015 186.3125 130.3125 C185.86197266 129.68134277 185.41144531 129.05018555 184.94726562 128.39990234 C179.01806826 120.11367092 172.76949258 112.33277939 165.7734375 104.92578125 C163.64813966 102.66891735 161.62525364 100.36681596 159.625 98 C156.16967715 94.03126833 152.34461983 90.68180561 148.3125 87.3125 C147.4153125 86.5390625 146.518125 85.765625 145.59375 84.96875 C138.49119633 78.91288845 131.14320238 73.41029407 123.3125 68.3125 C122.23097656 67.60609375 121.14945312 66.8996875 120.03515625 66.171875 C66.13789105 32.00837428 -0.47457308 23.26216392 -61.6875 40.3125 Z "
        fill="#FFFFFF"
        transform="translate(255.6875,-0.3125)"
    />
    <path
        d="M0 0 C3.39254938 2.559665 6.34107764 5.59344576 9.34619141 8.58865356 C10.41437355 9.64685051 10.41437355 9.64685051 11.50413513 10.72642517 C13.00350706 12.21570793 14.50021008 13.70768194 15.99438477 15.20217896 C18.26564029 17.46906714 20.55239697 19.71947634 22.84033203 21.96951294 C24.30159885 23.42490949 25.76191682 24.88125947 27.22119141 26.33865356 C27.89839737 27.00148849 28.57560333 27.66432343 29.27333069 28.34724426 C38.04162153 37.19971378 41.59125996 46.29243507 41.74853516 58.77615356 C41.01469035 69.14171144 36.33675491 77.40796292 28.71728516 84.29568481 C16.22892139 94.29568481 16.22892139 94.29568481 12.71728516 94.29568481 C20.30744445 122.71200464 30.75668554 146.55886668 56.93212891 162.27615356 C68.34847795 168.60237199 81.08409438 172.29576783 93.71728516 175.29568481 C93.95318359 174.60216919 94.18908203 173.90865356 94.43212891 173.19412231 C98.8960394 163.1265795 107.67659619 153.44425889 117.71337891 148.95584106 C127.85489408 145.3399587 138.31204149 145.25705129 148.19189453 149.86160278 C157.55545272 155.17884377 165.51931141 164.79224995 173.15991211 172.33328247 C174.40927423 173.56094918 175.66486733 174.78230598 176.92651367 175.99734497 C186.7447982 185.45857787 194.66408203 194.47552044 195.02978516 208.79568481 C194.80994782 223.90950159 186.56068841 235.4377827 176.52978516 246.04568481 C156.40184305 265.30459321 130.07544365 271.73581855 102.91650391 271.44802856 C65.21525133 270.60775382 29.51200314 254.65176466 -0.28271484 232.29568481 C-1.21728516 231.59572388 -2.15185547 230.89576294 -3.11474609 230.17459106 C-43.70880453 198.6305812 -75.07483858 152.44395801 -82.51171875 100.9704895 C-84.27988592 86.62774913 -84.46540609 71.43488214 -81.28271484 57.29568481 C-81.03779297 56.123927 -80.79287109 54.95216919 -80.54052734 53.74490356 C-75.29190528 31.38019982 -62.05234514 11.48324944 -42.46044922 -0.78268433 C-28.63181938 -9.02681988 -13.51892077 -9.14034071 0 0 Z M-31.28271484 31.29568481 C-34.03313151 33.71235252 -34.03313151 33.71235252 -36.28271484 36.29568481 C-37.48927734 37.56412231 -37.48927734 37.56412231 -38.72021484 38.85818481 C-50.74615932 53.69144756 -52.64762495 74.1352925 -51.09667969 92.49832153 C-47.15964595 128.10802994 -28.00183843 160.36849803 -3.64746094 185.86355591 C-2.33323018 187.24267534 -1.03610823 188.63803694 0.26025391 190.03396606 C26.51094252 217.47606263 65.54141497 238.38729805 103.92675781 239.57669067 C122.46064382 239.84623648 139.3694114 235.56280869 153.34228516 222.92068481 C159.58036798 216.43235439 159.58036798 216.43235439 162.71728516 208.29568481 C161.66264492 206.41318096 161.66264492 206.41318096 159.91650391 204.69412231 C159.2672998 203.99899536 158.6180957 203.30386841 157.94921875 202.587677 C157.21268066 201.83131958 156.47614258 201.07496216 155.71728516 200.29568481 C154.92789551 199.47487427 154.13850586 198.65406372 153.32519531 197.80838013 C150.74812525 195.15708168 148.14325806 192.53607798 145.52978516 189.92068481 C144.64097656 189.01963013 143.75216797 188.11857544 142.83642578 187.19021606 C141.97855469 186.33041138 141.12068359 185.47060669 140.23681641 184.58474731 C139.46442627 183.80824829 138.69203613 183.03174927 137.89624023 182.23171997 C135.89027919 180.44939267 134.17055074 179.34115606 131.71728516 178.29568481 C127.66975035 182.12284567 124.40204377 186.21584724 121.15478516 190.73318481 C120.68621094 191.37578247 120.21763672 192.01838013 119.73486328 192.68045044 C117.59490167 195.62850944 115.51043295 198.59105016 113.53369141 201.65115356 C111.17116581 205.09078761 109.70739409 206.0131498 105.71728516 207.29568481 C79.03928736 210.8852493 46.63842081 195.9011505 25.71728516 180.29568481 C0.3678923 160.12429951 -14.42034125 128.82365588 -19.00146484 97.10818481 C-20.46577229 82.46511033 -20.46577229 82.46511033 -16.28271484 76.29568481 C-13.16038813 73.66230722 -9.81168477 71.42224387 -6.40771484 69.17068481 C-4.61773665 67.96110127 -2.82864701 66.7502016 -1.04052734 65.53787231 C0.20809082 64.69240845 0.20809082 64.69240845 1.48193359 63.8298645 C6.7431675 60.47389317 6.7431675 60.47389317 9.71728516 55.29568481 C3.74664974 48.32097858 -2.6474394 41.76396049 -9.09521484 35.23318481 C-9.93157471 34.37555542 -10.76793457 33.51792603 -11.62963867 32.63430786 C-12.42909912 31.83033569 -13.22855957 31.02636353 -14.05224609 30.19802856 C-14.77001221 29.47091675 -15.48777832 28.74380493 -16.22729492 27.99465942 C-22.17767176 23.0761807 -26.05606964 27.26075225 -31.28271484 31.29568481 Z "
        fill="#FFFFFF"
        transform="translate(200.28271484375,123.70431518554688)"
    />
</svg>
